<?xml version="1.0" standalone="no"?>
<!DOCTYPE svg PUBLIC "-//W3C//DTD SVG 20010904//EN"
 "http://www.w3.org/TR/2001/REC-SVG-20010904/DTD/svg10.dtd">
<svg version="1.0" xmlns="http://www.w3.org/2000/svg"
 width="260.000000pt" height="260.000000pt" viewBox="0 0 260.000000 260.000000"
 preserveAspectRatio="xMidYMid meet">
<metadata>
Created by potrace 1.14, written by Peter Selinger 2001-2017
</metadata>
<g transform="translate(0.000000,260.000000) scale(0.100000,-0.100000)"
fill="#000000" stroke="none">
<path d="M1195 2581 c-27 -13 -222 -202 -607 -587 -594 -597 -588 -590 -588
-674 0 -84 -6 -77 578 -663 588 -589 609 -607 696 -607 92 0 107 14 698 606
474 477 558 565 567 599 16 58 13 104 -8 151 -21 46 -87 124 -105 124 -6 0
-227 -218 -491 -484 -540 -544 -521 -529 -660 -530 -132 -1 -145 8 -477 341
-325 326 -332 335 -332 463 -1 130 2 133 431 563 l378 377 377 -377 c231 -233
384 -394 396 -418 11 -23 24 -58 27 -79 l8 -38 133 133 134 134 -467 468
c-494 494 -522 517 -607 517 -23 0 -59 -9 -81 -19z"/>
<path d="M938 1772 c-185 -185 -343 -351 -352 -369 -22 -44 -20 -125 3 -171
28 -54 557 -577 603 -597 43 -17 114 -20 155 -5 15 6 160 142 321 303 302 301
312 314 312 392 0 74 -37 119 -377 457 l-328 328 -337 -338z"/>
</g>
</svg>
