<svg width="345" height="390" viewBox="0 0 345 390" fill="none" xmlns="http://www.w3.org/2000/svg">
<path d="M243.973 98.6104L249.564 102.562V103.879L237.684 132.855C237.684 132.855 234.19 128.904 231.395 128.245C228.598 127.586 223.707 132.196 220.212 131.538C216.718 130.879 215.32 129.562 214.621 128.245C213.922 126.269 208.332 126.269 211.127 123.635C211.127 123.635 209.031 124.294 209.031 122.318C209.031 120.343 206.935 119.684 206.935 119.684C206.935 119.684 200.645 121.001 201.345 117.708C202.043 114.416 203.44 110.464 203.44 110.464C203.44 110.464 202.741 109.806 201.345 109.147C199.947 108.489 194.356 101.904 195.054 95.9766C195.753 90.0497 220.213 83.464 229.996 84.1227C239.081 85.4396 243.973 98.6104 243.973 98.6104Z" fill="#C68642"/>
<path d="M251.057 102.775C248.96 104.751 240.574 106.068 238.478 103.435C236.382 100.142 229.393 98.1665 226.597 100.8C223.802 104.093 225.899 108.703 225.899 108.703L222.405 110.019C222.405 110.019 221.705 108.044 220.308 106.727C218.911 104.752 214.018 104.093 214.018 101.459C214.018 98.8246 211.223 94.2152 207.029 93.5565C202.836 92.8977 197.246 95.5321 197.246 95.5321C197.246 95.5321 192.354 94.2152 193.752 90.2639C195.149 86.3126 204.934 71.1656 217.513 67.2143C230.092 64.5799 244.069 73.1418 247.564 80.3857C250.359 87.6289 251.057 102.775 251.057 102.775Z" fill="#1C215D"/>
<path d="M97.436 117.186C97.436 117.186 100.216 123.408 101.142 125.482C102.069 127.556 105.775 142.073 105.775 142.073L128.012 145.528L134.498 134.468C134.498 134.468 138.204 133.086 139.13 126.864C140.057 120.643 140.057 115.112 140.057 110.273C140.057 105.434 138.203 97.8308 138.203 97.8308C138.203 97.8308 136.35 90.9179 133.57 88.1532C130.791 85.3886 94.6564 91.6094 92.8037 97.14C90.9509 102.671 96.5092 115.112 97.436 117.186Z" fill="#C68642"/>
<path d="M103.923 135.851C102.996 131.703 102.07 127.555 101.143 126.173C100.216 124.791 99.2903 121.334 98.3635 119.26C99.2903 120.642 99.2903 122.025 100.216 124.099C101.143 127.555 102.996 131.702 103.923 135.851Z" fill="#C68642"/>
<path d="M96.5099 115.803H98.3627C98.3627 115.803 94.6563 111.655 96.5099 108.89C98.3635 106.125 92.8036 97.8302 99.2895 99.2132C105.775 100.596 121.526 96.4479 126.158 92.9917C130.79 89.5356 132.644 89.5349 134.497 90.9173C136.35 92.2996 138.203 97.8309 138.203 97.8309C138.203 97.8309 136.35 92.3009 134.497 88.8441C132.644 85.3879 136.35 81.9311 120.599 78.475C104.849 75.0188 90.9508 79.8573 86.3176 88.8441C81.6845 97.8309 87.2445 106.817 90.9499 109.582C93.7304 111.656 96.5099 115.803 96.5099 115.803Z" fill="#1C215D"/>
<path d="M199.589 199.685C199.589 199.685 196.245 198.961 192.067 198.961C187.889 198.961 184.546 200.409 181.203 198.961C178.696 197.512 177.86 196.788 175.353 197.512C173.682 198.237 172.846 198.961 172.01 198.961C171.174 198.961 170.339 199.685 170.339 198.961C169.503 198.236 167.832 197.512 167.832 196.788C167.832 196.788 166.161 195.34 166.996 194.615C166.996 194.615 166.16 193.166 166.16 192.441C166.16 192.441 162.817 191.717 164.489 188.82C166.16 185.922 170.339 184.473 172.01 183.025C174.517 181.576 176.189 180.852 177.86 181.576C180.367 182.301 187.888 185.922 189.559 185.922C191.231 186.647 213.794 186.648 213.794 186.648L212.957 199.686L199.589 199.685Z" fill="#C68642"/>
<path d="M215.929 185.275H207.572C207.572 185.275 204.229 196.866 205.901 204.109L220.943 206.283L215.929 185.275Z" fill="#F3F3F3"/>
<path d="M161.354 368.033L137.682 273.27L141.269 271.802L164.941 367.299L161.354 368.033Z" fill="#ACB3B9"/>
<path d="M72.4047 368.033L68.8169 367.298L83.1649 265.19L86.7514 265.924L72.4047 368.033Z" fill="#ACB3B9"/>
<path d="M180.723 368.033L156.333 273.27L159.92 271.802L184.31 367.299L180.723 368.033Z" fill="#ACB3B9"/>
<path d="M91.7722 368.033L88.1851 367.298L101.815 265.19L105.401 265.924L91.7722 368.033Z" fill="#ACB3B9"/>
<path d="M68.1007 262.251C68.1007 262.986 81.0129 273.27 103.251 277.677C125.489 282.085 180.724 273.27 190.767 265.924C200.809 258.578 190.766 220.38 182.875 213.768C174.985 207.157 168.529 210.096 159.921 196.138C152.031 182.181 100.382 171.897 84.6001 180.712C68.8183 189.527 47.2973 221.849 68.1007 262.251Z" fill="#80ADF1"/>
<path d="M97.5107 344.526C97.5107 344.526 98.2283 335.711 98.2283 329.1C98.2283 322.488 115.445 316.612 115.445 316.612C115.445 316.612 116.879 343.057 118.314 348.199C119.749 353.342 119.749 353.342 119.749 353.342C119.749 353.342 101.815 361.421 97.5107 344.526Z" fill="#E8EAE9"/>
<path d="M97.5116 341.587C97.5116 341.587 98.9461 347.464 104.685 349.668C110.424 351.137 116.88 344.526 117.597 343.057C117.597 343.057 119.032 353.34 124.054 357.014C129.075 360.687 136.248 369.502 136.248 369.502C136.248 369.502 131.227 375.377 122.618 374.644C114.01 373.909 101.816 365.829 99.6637 362.157C97.5116 358.483 93.9251 354.809 97.5116 341.587Z" fill="#1C215D"/>
<path d="M169.246 366.564L167.811 368.767V371.706L176.419 373.91V372.441C176.419 372.441 180.723 371.706 184.31 374.645C187.896 377.583 191.483 380.522 196.504 380.522C200.808 380.522 206.547 379.786 207.265 376.849C208.699 374.644 181.441 366.564 169.246 366.564Z" fill="#1C215D"/>
<path d="M168.528 368.768C168.528 368.768 166.376 357.749 170.681 352.606C170.681 352.606 169.963 354.809 172.115 355.545C173.549 356.28 177.136 354.076 182.874 351.137C188.613 348.199 193.635 351.137 193.635 351.137C193.635 351.137 199.373 361.421 201.525 363.625C204.395 365.828 217.308 371.705 220.894 371.705C224.481 371.705 221.612 381.989 213.004 381.255C204.395 380.52 192.2 378.317 187.179 373.909C181.44 369.501 168.528 368.768 168.528 368.768Z" fill="#1C215D"/>
<path d="M333.516 389.336H215.154C211.568 389.336 208.699 387.867 206.547 384.928C204.394 382.724 203.677 379.052 203.677 375.378L218.741 274.004L288.324 275.474L342.842 370.972C344.994 374.645 344.994 379.052 342.842 382.725C341.408 387.132 337.821 389.336 333.516 389.336ZM221.611 277.678L207.264 376.114C207.264 378.317 207.264 381.255 209.416 382.724C210.851 384.928 213.003 385.664 215.873 385.664H334.234C337.103 385.664 339.973 384.195 341.408 381.255C342.842 378.317 342.842 375.379 341.408 373.176L287.607 279.148L221.611 277.678Z" fill="#CED5DF"/>
<path d="M73.8386 166.02C78.5926 166.02 82.4467 171.94 82.4467 179.243C82.4467 186.546 78.5926 192.465 73.8386 192.465C69.0846 192.465 65.2305 186.546 65.2305 179.243C65.2305 171.94 69.0846 166.02 73.8386 166.02Z" fill="#1C215D"/>
<path d="M70.9695 255.64C70.9695 255.64 82.4465 271.802 89.6195 273.271C89.6195 273.271 85.3155 285.024 89.6195 301.185C93.9236 317.346 98.2277 333.506 98.2277 333.506C98.2277 333.506 103.966 332.772 108.27 332.038C112.574 331.303 119.748 327.63 119.748 322.487V295.308C119.748 286.493 119.03 281.35 120.466 277.677C121.9 274.739 119.748 271.801 126.204 270.331C132.66 268.862 154.899 268.862 154.899 268.862L186.46 273.27C186.46 273.27 180.006 315.141 179.287 319.55C179.287 319.55 182.157 318.814 187.178 321.753C192.199 324.692 200.09 326.896 200.09 326.896C200.09 326.896 211.567 302.654 213.72 295.308C215.872 287.962 224.48 265.189 225.914 257.843C228.066 250.497 228.066 238.009 215.154 232.867C202.242 227.725 190.047 227.725 190.047 227.725L86.7506 221.849L70.9695 255.64Z" fill="#1C215D"/>
<path d="M127.639 152.063L131.943 141.779C131.943 141.779 126.922 145.451 120.466 143.248C114.01 141.044 106.836 132.229 106.836 132.229C106.836 132.229 114.727 146.92 127.639 152.063Z" fill="#C68642"/>
<path d="M120.466 146.187H122.618L136.964 144.718L159.202 224.054C159.202 224.054 143.42 240.215 129.074 240.949C114.727 241.683 91.0547 232.868 86.7506 230.664C83.1641 228.461 103.967 143.982 103.967 143.982L120.466 146.187Z" fill="#89D6F8"/>
<path d="M122.618 155.001L124.77 157.205C124.77 157.205 126.204 162.347 126.922 163.816C126.922 165.285 139.116 250.498 139.116 250.498L131.943 260.782L122.618 252.702C122.618 252.702 115.444 177.774 116.879 171.162C117.597 164.551 119.749 157.94 119.749 157.94L122.618 155.001Z" fill="#E8EAE9"/>
<path d="M117.597 147.655L120.466 146.921H122.618L127.64 149.125C127.64 149.125 124.77 155.001 125.488 157.94C123.336 157.205 121.901 157.204 119.749 158.674C119.749 158.674 118.315 152.063 116.163 150.594C113.293 149.125 117.597 147.655 117.597 147.655Z" fill="#E8EAE9"/>
<path d="M102.533 120.475C102.533 120.475 98.229 121.21 91.7729 122.679C85.3169 124.148 71.6871 125.617 71.6871 125.617C71.6871 125.617 75.2729 131.494 74.556 140.309C74.556 149.859 79.5783 157.939 79.5783 163.816C79.5783 169.692 70.2526 223.318 64.5141 235.071C58.7756 246.825 55.1877 251.967 54.4702 262.251C53.0357 272.536 50.1661 287.962 54.4702 290.901C58.7742 293.839 64.5134 279.882 72.4047 268.128C80.2952 256.374 102.533 212.299 104.685 199.811C106.837 186.588 102.533 120.475 102.533 120.475Z" fill="#1C215D"/>
<path d="M84.5986 203.484L88.9027 205.688C88.9027 205.688 93.925 207.157 91.773 189.527C91.773 189.527 87.4689 190.996 86.0344 192.465C84.5993 193.934 84.5986 203.484 84.5986 203.484Z" fill="#ACB3B9"/>
<path d="M109.706 148.389V160.143C109.706 168.223 103.967 199.811 103.967 199.811C103.967 199.811 104.685 182.915 102.533 177.773C101.098 172.631 92.49 152.063 92.49 152.063L98.2285 148.39L93.9245 145.451L101.815 121.21C101.815 121.21 102.533 121.21 102.533 121.945V122.679C102.533 122.679 104.685 129.291 105.402 131.495C106.837 132.963 109.706 145.451 109.706 148.389Z" fill="#1C215D"/>
<path d="M109.706 159.408V160.143C109.706 168.223 103.967 199.811 103.967 199.811C103.967 199.811 104.685 182.915 102.533 177.773C101.098 172.631 92.49 152.063 92.49 152.063L98.2285 148.39L93.9245 145.451L101.815 121.21C102.533 121.945 103.249 122.679 103.249 124.149C103.967 125.618 103.967 127.087 104.684 129.291C106.118 133.698 106.836 137.371 107.554 141.779C109.706 147.655 109.706 153.532 109.706 159.408Z" fill="#1C215D"/>
<path d="M87.4691 191.042C87.4691 191.042 93.2069 191.777 93.2069 191.042C93.2069 189.573 93.9245 188.839 95.359 187.37C96.7934 186.635 98.2286 186.634 99.663 186.634C101.815 186.634 106.119 186.634 106.837 188.103C108.271 189.572 106.837 191.776 104.685 191.042C102.533 191.042 101.099 191.043 100.381 191.777L99.663 192.512C99.663 192.512 104.685 193.981 106.837 193.247C108.989 192.512 113.293 192.512 115.445 192.512C117.597 193.246 119.75 193.981 119.032 195.45C119.032 195.45 120.466 196.186 119.75 197.655C119.032 199.124 115.445 200.593 111.141 200.593C106.12 200.593 98.9461 202.062 94.6421 201.328C90.338 201.328 83.8819 199.859 78.1434 199.124H72.4055L87.4691 191.042Z" fill="#C68642"/>
<path d="M106.837 117.582C108.271 121.255 108.271 124.929 106.837 125.663C104.685 126.398 102.533 124.194 100.381 120.521C98.9461 116.848 98.9461 113.175 100.381 112.441C102.533 111.707 104.685 113.91 106.837 117.582Z" fill="#C68642"/>
<path d="M187.986 187.966C187.986 193.108 186.551 196.781 186.551 196.781L175.791 198.25C175.791 198.25 175.074 183.558 162.162 180.619C161.444 175.477 160.728 171.069 160.728 168.132C160.728 156.378 170.053 132.136 170.053 132.136C170.053 132.136 174.357 135.075 173.64 140.217C172.922 145.359 176.509 147.563 176.509 150.501C176.509 153.439 175.792 154.173 176.509 157.112C177.943 159.316 188.703 182.824 187.986 187.966Z" fill="#1C215D"/>
<path d="M189.331 227.727C189.331 227.727 176.419 229.195 171.397 229.93C165.658 230.665 162.789 230.665 160.637 228.461C157.767 226.257 145.573 200.547 145.573 200.547C145.573 200.547 141.268 179.978 140.551 160.879C140.551 148.391 137.681 134.434 136.247 126.354V119.742C139.116 120.477 147.007 122.681 152.746 124.15C159.919 126.354 172.114 129.292 172.114 129.292C172.114 129.292 162.788 153.534 162.788 165.287C162.788 177.041 169.962 217.443 172.831 220.382C176.419 224.787 189.331 227.727 189.331 227.727Z" fill="#1C215D"/>
<path d="M162.79 195.403C162.79 195.403 157.768 194.668 159.92 178.508C159.92 178.508 162.79 177.039 166.376 179.243C169.963 181.447 172.832 188.058 171.398 190.996C169.963 193.934 164.224 195.403 162.79 195.403Z" fill="#CED5DF"/>
<path d="M154.182 219.645C153.464 218.91 144.139 206.423 139.835 190.262C136.965 179.243 134.813 155.736 133.378 140.31C134.096 138.841 134.814 137.371 135.531 133.698C135.531 130.76 136.249 128.556 136.249 125.618L146.291 143.982L144.139 148.39L150.595 149.125C150.595 149.125 147.009 178.509 147.726 186.59C148.443 193.935 154.182 218.176 154.182 219.645Z" fill="#1C215D"/>
<path d="M162.79 177.773L159.92 178.509C159.92 178.509 156.334 178.508 154.182 177.773C152.03 177.038 147.726 174.835 145.574 176.304C143.422 177.039 139.118 185.12 139.118 185.12L156.334 194.67C156.334 194.67 158.486 193.934 159.204 193.2C159.921 192.465 163.508 194.669 168.529 193.2L174.267 192.466C174.267 192.466 171.398 185.119 169.964 182.181C168.529 179.243 164.942 178.508 162.79 177.773Z" fill="#C68642"/>
<path d="M218.742 315.142C218.742 315.142 225.916 332.773 232.373 336.446C238.828 340.118 240.98 343.791 240.98 343.791L213.004 356.279C213.004 356.279 213.004 345.995 209.418 338.649C205.831 330.568 197.223 322.487 197.223 322.487L218.742 315.142Z" fill="#E8EAE9"/>
<path d="M214.438 362.248C214.438 362.248 205.83 367.391 200.092 368.86C194.353 370.328 187.897 372.532 187.897 376.94C187.897 381.347 195.071 383.551 202.244 383.551C209.417 383.551 221.612 381.347 225.198 376.94C228.785 372.532 234.524 368.125 234.524 368.125L237.394 371.064C237.394 371.064 251.74 363.717 253.176 359.309C255.328 354.902 253.893 354.902 253.893 354.902L250.307 349.759L214.438 362.248Z" fill="#1C215D"/>
<path d="M211.569 349.759C211.569 349.759 215.873 345.352 223.764 345.352C231.654 345.352 238.827 339.474 238.827 339.474C238.827 339.474 244.566 340.944 250.306 349.026C250.306 349.026 240.979 353.432 235.241 357.84C229.502 362.982 226.633 365.186 221.612 366.655C215.873 368.858 191.483 369.595 187.897 376.94C187.897 376.94 187.179 374 193.635 371.063C200.091 367.39 207.265 365.186 208.699 361.512C210.852 356.371 211.569 349.759 211.569 349.759Z" fill="#1C215D"/>
<path d="M191.483 244.621C191.483 244.621 162.789 248.293 157.05 252.701C151.312 257.109 150.595 265.925 152.029 271.067C153.464 275.475 200.091 331.303 204.394 333.507C204.394 333.507 207.981 328.365 213.72 324.692C219.459 321.019 220.894 315.878 220.894 315.878C220.894 315.878 201.527 292.37 195.787 284.29C190.049 276.208 187.898 275.475 187.898 275.475L216.591 260.048L191.483 244.621Z" fill="#1C215D"/>
<path d="M316.301 380.52H205.83C202.96 380.52 200.091 379.052 197.939 376.847C195.787 374.644 195.07 370.971 195.787 368.033L209.417 273.27L274.696 274.739L325.626 363.625C327.778 367.298 327.778 370.971 325.626 374.644C323.474 378.317 319.888 380.52 316.301 380.52ZM212.287 276.943L198.656 368.767C198.656 370.971 198.656 373.174 200.091 374.644C201.525 376.113 203.677 377.583 205.829 377.583H316.301C319.17 377.583 321.322 376.114 322.757 373.91C324.191 371.706 324.191 368.767 322.757 365.829L272.543 278.413L212.287 276.943Z" fill="#ACB3B9"/>
<path d="M136.965 330.569C136.965 330.569 138.4 334.976 147.008 336.445C154.898 337.915 164.942 343.791 164.942 343.791C164.942 343.791 185.744 303.388 187.896 295.309C190.048 287.228 191.483 275.475 191.483 275.475C191.483 275.475 215.155 272.535 238.827 274.006C262.5 275.475 296.215 261.517 299.802 253.437C303.388 245.357 305.54 227.727 305.54 227.727L230.937 233.602C230.937 233.602 228.067 238.745 221.611 239.479C214.438 240.214 185.744 240.948 179.288 243.887C172.832 246.091 166.376 246.825 163.506 259.313C160.637 271.802 147.725 304.859 136.965 330.569Z" fill="#1C215D"/>
<path d="M251.74 99.172C251.74 99.172 238.827 111.66 235.958 131.494L247.435 141.044L261.065 109.456L251.74 99.172Z" fill="#CED5DF"/>
<path d="M304.824 210.83L296.215 252.701C296.215 252.701 230.22 248.294 225.916 240.214C221.612 232.134 227.351 197.608 229.502 189.527C231.654 182.181 238.828 163.817 243.133 143.983C247.436 124.149 261.067 107.988 261.067 107.988L265.37 108.722C265.37 108.722 277.565 115.333 281.869 118.272C286.173 121.21 296.215 133.698 298.367 139.575C299.085 146.186 304.824 210.83 304.824 210.83Z" fill="#1C215D"/>
<path d="M257.479 102.844C257.479 102.844 252.458 105.783 248.154 121.21C243.132 136.636 239.546 155.001 237.394 161.613C235.242 168.224 229.502 189.527 229.502 189.527C229.502 189.527 239.545 163.816 242.415 153.532C244.567 143.248 249.589 119.006 265.369 108.721L257.479 102.844Z" fill="#1C215D"/>
<path d="M200.808 276.943C200.808 276.943 210.134 268.863 216.591 260.048C223.046 251.233 242.415 225.523 260.348 218.177C278.282 210.83 327.061 200.546 327.061 200.546C327.061 200.546 319.171 232.868 317.736 246.091C316.301 259.314 307.694 282.085 281.869 284.289C256.044 285.758 200.808 276.943 200.808 276.943Z" fill="#80ADF1"/>
<path d="M228.067 127.821C230.219 127.086 231.654 125.617 233.089 126.352C233.807 126.352 234.524 127.088 235.241 127.088C237.393 117.538 235.959 106.519 235.959 106.519C235.959 115.333 228.067 127.821 228.067 127.821Z" fill="#C68642"/>
<path d="M158.575 179.885C158.575 179.885 164.313 179.15 166.465 182.089C168.617 185.028 168.618 194.577 161.444 196.781H176.508C176.508 196.781 177.942 187.966 173.638 183.558C169.335 179.15 165.032 178.416 158.575 179.885Z" fill="#F3F3F3"/>
<path d="M179.288 161.613V185.855C177.854 186.59 176.418 187.324 175.701 188.793C173.55 185.121 170.68 179.978 164.224 178.509C163.506 173.367 162.789 169.694 162.789 166.756V162.348H179.288V161.613Z" fill="#1C215D"/>
<path d="M248.871 161.613C248.871 161.613 245.285 140.31 250.306 130.026C255.327 119.741 270.391 119.742 276.847 126.353C283.302 132.964 288.325 148.391 287.607 157.941C286.889 167.49 281.152 177.04 281.152 184.386C281.152 191.732 278.999 194.669 276.129 197.608C273.977 200.546 269.673 206.424 266.804 207.893C263.934 208.627 210.133 212.3 210.851 211.565C211.568 210.83 208.699 192.466 209.417 186.589C209.417 186.589 227.35 185.853 230.219 185.853C233.088 186.588 234.523 185.854 236.675 184.385C238.827 183.65 238.827 182.916 240.262 183.65C241.697 184.385 244.566 184.385 246 183.65C247.434 182.916 248.871 180.712 248.871 180.712C248.871 180.712 246.718 171.162 248.152 168.958C249.587 166.755 248.871 161.613 248.871 161.613Z" fill="#1C215D"/>
<path d="M134.096 146.92L129.791 157.938L122.618 146.185C130.509 143.982 134.096 139.574 134.096 139.574V146.92Z" fill="white"/>
<path d="M120.466 146.186C120.466 146.186 117.596 148.39 116.162 151.329C114.727 154.267 113.292 156.471 113.292 156.471L109.706 149.125C108.988 142.513 108.271 136.637 106.836 130.026C106.837 131.494 114.01 143.982 120.466 146.186Z" fill="white"/>
<path d="M78.1433 188.103L91.0548 188.839C91.0548 188.839 86.7514 191.042 86.7514 197.653C86.7514 204.265 88.1858 204.265 88.1858 204.265L66.6655 200.592C67.3831 201.326 76.7088 188.103 78.1433 188.103Z" fill="#F3F3F3"/>
<path d="M87.4684 188.103C79.5778 191.776 76.7082 194.715 75.2738 203.53L38.6892 201.327C38.6892 201.327 39.4068 185.9 40.1237 181.493C40.8406 177.085 43.7102 169.739 48.0142 165.331C51.6007 160.924 59.492 149.904 60.2089 147.701C60.9264 145.497 63.0785 143.294 63.7954 141.825C64.5129 140.356 65.9474 135.213 66.665 130.806C67.3825 125.663 71.6866 124.929 71.6866 124.929C71.6866 124.929 75.2731 130.805 74.5562 139.62C74.5562 149.17 79.5778 157.25 79.5778 163.127C79.5778 164.596 78.8602 167.535 78.8602 171.943L73.1224 185.165L75.2738 185.9L87.4684 188.103Z" fill="#1C215D"/>
<path d="M101.815 213.768H113.293V363.625H101.815V213.768Z" fill="#EEEEEE"/>
<path d="M210.134 212.299H5.69106C2.82146 212.299 0.669434 210.096 0.669434 207.157C0.669434 204.218 2.82146 202.015 5.69106 202.015H210.134C213.004 202.015 215.156 204.218 215.156 207.157C215.155 210.096 213.004 212.299 210.134 212.299Z" fill="#EEEEEE"/>
<path d="M210.134 212.299C143.421 217.442 75.2738 216.707 5.69116 212.299H210.134Z" fill="#EEEEEE"/>
<path d="M167.81 373.174H47.2966C47.2966 368.032 51.6007 363.625 56.6223 363.625H158.485C163.506 363.626 167.81 368.033 167.81 373.174Z" fill="#EEEEEE"/>
<path d="M157.679 365.828L143.332 370.971L133.289 357.749C133.289 357.749 139.028 351.871 141.898 345.994C143.332 343.056 145.484 339.384 146.919 336.444H147.636C154.092 337.914 161.984 341.587 164.136 343.79C161.983 347.463 156.961 358.482 157.679 365.828Z" fill="#E8EAE9"/>
<path d="M99.5735 376.113H94.5519C94.5519 376.113 92.3999 379.052 93.1174 379.786C93.835 380.521 108.899 386.397 118.942 388.601C128.268 390.805 141.18 387.133 143.332 384.929V388.601H157.678C159.83 388.601 161.265 387.133 161.265 384.929V379.786L156.243 376.113H99.5735Z" fill="#1C215D"/>
<path d="M134.006 356.28C134.006 356.28 137.592 356.28 139.744 359.952C141.896 363.625 145.483 365.828 148.353 366.564C151.222 367.299 157.678 364.359 158.395 362.155C158.395 362.155 161.265 374.644 160.547 379.786C160.547 379.786 149.069 379.786 141.179 383.459C132.571 386.397 129.701 388.601 120.376 386.397C111.05 384.193 95.9862 378.317 94.5518 376.114C94.5518 376.114 101.008 375.378 107.464 374.645C113.92 373.911 120.376 366.564 124.68 362.891C128.984 358.483 134.006 356.28 134.006 356.28Z" fill="#1C215D"/>
<path d="M159.202 161.613H91.0548C88.9027 161.613 87.4683 163.082 87.4683 165.285L92.4899 202.015H157.051L162.072 165.285C162.789 163.816 160.637 161.613 159.202 161.613Z" fill="#CED5DF"/>
<path d="M125.487 179.977C127.468 179.977 129.074 180.964 129.074 182.181C129.074 183.398 127.468 184.384 125.487 184.384C123.507 184.384 121.901 183.398 121.901 182.181C121.901 180.964 123.507 179.977 125.487 179.977Z" fill="#ACB3B9"/>
<path d="M108.312 20.694V43.108C108.312 54.146 99.35 63.108 88.312 63.108H29C17.962 63.108 9 54.146 9 43.108V20.694C9 9.65597 17.962 0.69397 29 0.69397H88.312C99.35 0.69397 108.312 9.65597 108.312 20.694Z" fill="#80ADF1"/>
<path d="M30.063 21.9995C35.0652 21.9995 39.1265 26.0608 39.1265 31.063C39.1265 36.0651 35.0652 40.1265 30.063 40.1265C25.0609 40.1265 20.9995 36.0651 20.9995 31.063C20.9995 26.0608 25.0609 21.9995 30.063 21.9995Z" fill="white"/>
<g opacity="0.34">
<path d="M54.063 21.4995C59.0652 21.4995 63.1265 25.5608 63.1265 30.563C63.1265 35.5651 59.0652 39.6265 54.063 39.6265C49.0609 39.6265 44.9995 35.5651 44.9995 30.563C44.9995 25.5608 49.0609 21.4995 54.063 21.4995Z" fill="white"/>
</g>
<g opacity="0.42">
<path d="M81.063 21.4995C86.0652 21.4995 90.1265 25.5608 90.1265 30.563C90.1265 35.5651 86.0652 39.6265 81.063 39.6265C76.0609 39.6265 71.9995 35.5651 71.9995 30.563C71.9995 25.5608 76.0609 21.4995 81.063 21.4995Z" fill="white"/>
</g>
</svg>
