<svg width="50" height="50" viewBox="0 0 50 50" fill="none" xmlns="http://www.w3.org/2000/svg">
  <path fill-rule="evenodd" clip-rule="evenodd"
    d="M1.16646 21.7864C-0.392814 23.3514 -0.388228 25.884 1.17671 27.4433L21.6992 47.8914C23.2621 49.4487 25.7908 49.4464 27.3509 47.8863L47.3582 27.879L47.8863 27.351C49.4484 25.7889 49.4484 23.2562 47.8863 21.6941L46.6289 20.4368L40.2212 26.8445L38.9038 28.1618C38.7238 28.4077 38.5227 28.643 38.3005 28.8652L28.7716 38.3941C27.5873 39.5784 26.0311 40.1641 24.4789 40.1513C22.9267 40.1641 21.3706 39.5784 20.1863 38.3941L10.6573 28.8652C8.90081 27.1087 8.46106 24.534 9.33808 22.3678C9.63098 21.6444 10.0707 20.9665 10.6573 20.3799L23.0676 7.96963L23.0648 7.96676L24.479 6.55254L25.8932 7.96676L25.8903 7.96968L27.206 9.28544L33.511 15.5904L38.3005 20.3799C39.3631 21.4426 39.9439 22.8047 40.0427 24.1946L45.2147 19.0225L44.0555 17.8634L27.3637 1.17158C25.7996 -0.392511 23.263 -0.390214 21.7018 1.17671L1.69158 21.2594L1.16646 21.7864ZM36.8863 21.7941C38.1507 23.0586 38.3917 24.959 37.609 26.4658C37.5374 26.6037 37.4572 26.7383 37.3685 26.8687L27.2573 36.9799C26.489 37.7482 25.4859 38.1387 24.4789 38.1512C23.472 38.1387 22.4688 37.7482 21.7005 36.9799L11.636 26.9154L11.6275 26.9239C11.5905 26.8714 11.5549 26.8182 11.5207 26.7644C10.7322 25.5228 10.6949 23.9416 11.4089 22.668C11.5844 22.3549 11.8053 22.0604 12.0716 21.7941L21.3375 12.5282L24.4789 9.38676L32.0968 17.0047L36.8863 21.7941Z"
    fill="url(#paint0_linear_56_110)" />
  <defs>
    <linearGradient id="paint0_linear_56_110" x1="-3.07105" y1="24.5225" x2="52.129" y2="24.5225"
      gradientUnits="userSpaceOnUse">
      <stop stop-color="#FF0000" />
      <stop offset="0.0001" stop-color="#FF0000" />
      <stop offset="0.5" stop-color="#D300FF" />
      <stop offset="0.927083" stop-color="#0029FF" />
      <stop offset="0.9998" stop-color="#1612BD" />
      <stop offset="0.9999" stop-color="#0500FF" stop-opacity="0" />
    </linearGradient>
  </defs>
</svg>