<svg width="550" height="348" viewBox="0 0 550 348" fill="none" xmlns="http://www.w3.org/2000/svg">
<g clip-path="url(#clip0_90_195)">
<path d="M486.209 229.876C483.545 252.715 478.01 271.051 470.412 285.675C460.301 305.16 443.008 313.011 427.559 321.226C423.095 323.595 418.454 325.615 413.678 327.266C385.566 337.028 354.103 334.438 329.388 329.284C312.054 325.665 294.458 323.439 276.769 322.627C271.724 322.399 266.674 322.286 261.619 322.288C253.824 322.298 113.468 324.964 79.295 255.734C70.858 238.657 65.0749 217.796 62.9972 192.368C57.1181 120.477 89.4306 73.2621 131.11 42.4007C209.955 -15.9785 318.029 -13.5302 395.712 46.3867C447.456 86.2977 495.905 146.7 486.209 229.876Z" fill="#18417E"/>
<path d="M470.412 285.675C460.301 305.16 446.546 318.069 431.098 326.284C426.634 328.654 421.993 330.673 417.216 332.324C389.105 342.087 357.641 339.497 332.927 334.342C315.592 330.724 297.997 328.498 280.308 327.685C275.263 327.458 270.213 327.345 265.158 327.346C257.362 327.357 249.569 327.647 241.777 328.217C191.14 331.94 113.468 324.964 79.2949 255.734L164.798 90.0206L196.62 171.774L206.776 197.871L234.766 159.437L249.219 139.593L315.037 215.1L333.64 173.99L462.435 279.165L469.618 285.027L470.412 285.675Z" fill="#F2F2F2"/>
<path opacity="0.1" d="M152.666 143.134L165.809 114.301L184.007 156.286L168.336 125.935L152.666 143.134Z" fill="black"/>
<path opacity="0.1" d="M280.308 327.685C275.263 327.458 270.213 327.345 265.158 327.347L206.776 197.871L280.308 327.685Z" fill="black"/>
<path opacity="0.1" d="M234.767 159.437L249.219 148.192L314.936 224.069L248.208 159.321L234.767 159.437Z" fill="black"/>
<path opacity="0.1" d="M431.098 326.284C426.634 328.654 421.993 330.673 417.216 332.324L315.037 215.1L431.098 326.284Z" fill="black"/>
<path d="M243.658 53.0942C244.496 53.0942 245.175 52.4148 245.175 51.5767C245.175 50.7386 244.496 50.0591 243.658 50.0591C242.821 50.0591 242.142 50.7386 242.142 51.5767C242.142 52.4148 242.821 53.0942 243.658 53.0942Z" fill="#F2F2F2"/>
<path d="M201.7 105.196C202.538 105.196 203.217 104.516 203.217 103.678C203.217 102.84 202.538 102.161 201.7 102.161C200.863 102.161 200.184 102.84 200.184 103.678C200.184 104.516 200.863 105.196 201.7 105.196Z" fill="#F2F2F2"/>
<path d="M304.32 113.795C304.878 113.795 305.331 113.342 305.331 112.784C305.331 112.225 304.878 111.772 304.32 111.772C303.761 111.772 303.309 112.225 303.309 112.784C303.309 113.342 303.761 113.795 304.32 113.795Z" fill="#F2F2F2"/>
<path d="M92.0037 136.558C92.5621 136.558 93.0147 136.105 93.0147 135.546C93.0147 134.988 92.5621 134.535 92.0037 134.535C91.4453 134.535 90.9927 134.988 90.9927 135.546C90.9927 136.105 91.4453 136.558 92.0037 136.558Z" fill="#F2F2F2"/>
<path d="M310.386 51.0708C310.944 51.0708 311.397 50.6179 311.397 50.0591C311.397 49.5004 310.944 49.0475 310.386 49.0475C309.828 49.0475 309.375 49.5004 309.375 50.0591C309.375 50.6179 309.828 51.0708 310.386 51.0708Z" fill="#F2F2F2"/>
<path d="M373.07 99.6316C373.628 99.6316 374.081 99.1787 374.081 98.62C374.081 98.0612 373.628 97.6083 373.07 97.6083C372.511 97.6083 372.059 98.0612 372.059 98.62C372.059 99.1787 372.511 99.6316 373.07 99.6316Z" fill="#F2F2F2"/>
<path d="M434.742 176.52C435.301 176.52 435.754 176.067 435.754 175.508C435.754 174.949 435.301 174.496 434.742 174.496C434.184 174.496 433.731 174.949 433.731 175.508C433.731 176.067 434.184 176.52 434.742 176.52Z" fill="#F2F2F2"/>
<path d="M154.688 61.3192H153.292V59.9231H152.544V61.3192H151.149V62.0668H152.544V63.4624H153.292V62.0668H154.688V61.3192Z" fill="#F2F2F2"/>
<path d="M428.676 214.589H427.281V213.193H426.533V214.589H425.138V215.337H426.533V216.732H427.281V215.337H428.676V214.589Z" fill="#F2F2F2"/>
<path d="M550 310.568C550 318.949 426.878 348 275 348C123.122 348 0 318.949 0 310.568C0 302.186 123.122 317.65 275 317.65C426.878 317.65 550 302.187 550 310.568Z" fill="#18417E"/>
<path opacity="0.1" d="M550 310.568C550 318.949 426.878 348 275 348C123.122 348 0 318.949 0 310.568C0 302.186 123.122 317.65 275 317.65C426.878 317.65 550 302.187 550 310.568Z" fill="black"/>
<path d="M275 325.743C426.878 325.743 550 318.949 550 310.568C550 302.187 426.878 295.392 275 295.392C123.122 295.392 0 302.187 0 310.568C0 318.949 123.122 325.743 275 325.743Z" fill="#18417E"/>
<path d="M287.133 289.322C287.133 306.084 279.664 301.463 270.451 301.463C261.238 301.463 253.769 306.084 253.769 289.322C253.769 272.56 270.451 240.762 270.451 240.762C270.451 240.762 287.133 272.56 287.133 289.322Z" fill="#FF6584"/>
<path opacity="0.1" d="M278.033 295.736C278.033 303.355 274.638 301.254 270.45 301.254C266.263 301.254 262.868 303.355 262.868 295.736C262.868 288.117 270.45 273.663 270.45 273.663C270.45 273.663 278.033 288.118 278.033 295.736Z" fill="black"/>
<path d="M289.154 306.015H251.746C249.234 306.015 247.197 308.053 247.197 310.568C247.197 313.082 249.234 315.12 251.746 315.12H289.154C291.667 315.12 293.704 313.082 293.704 310.568C293.704 308.053 291.667 306.015 289.154 306.015Z" fill="#2F2E41"/>
<path d="M289.154 296.91H251.746C249.234 296.91 247.197 298.948 247.197 301.463C247.197 303.977 249.234 306.015 251.746 306.015H289.154C291.667 306.015 293.704 303.977 293.704 301.463C293.704 298.948 291.667 296.91 289.154 296.91Z" fill="#2F2E41"/>
<path d="M69.2554 248.13C69.2554 276.124 86.8063 298.778 108.496 298.778Z" fill="#18417E"/>
<path d="M108.497 298.778C108.497 270.468 128.083 247.561 152.287 247.561Z" fill="#6C63FF"/>
<path d="M83.4731 250.667C83.4731 277.26 94.6652 298.778 108.496 298.778Z" fill="#6C63FF"/>
<path d="M108.497 298.778C108.497 262.604 131.135 233.333 159.112 233.333Z" fill="#18417E"/>
<path d="M100.244 299.135C100.244 299.135 105.809 298.963 107.486 297.769C109.162 296.575 116.046 295.147 116.462 297.063C116.878 298.979 124.825 306.595 118.542 306.646C112.259 306.698 103.944 305.667 102.27 304.647C100.596 303.627 100.244 299.135 100.244 299.135Z" fill="#A8A8A8"/>
<path opacity="0.2" d="M118.653 305.979C112.37 306.029 104.054 304.999 102.38 303.979C101.105 303.202 100.597 300.414 100.427 299.128L100.241 299.135C100.241 299.135 100.595 303.626 102.268 304.648C103.941 305.671 112.257 306.699 118.54 306.648C120.354 306.633 120.98 305.988 120.946 305.029C120.694 305.607 120.002 305.968 118.653 305.979Z" fill="black"/>
<path d="M364.693 266.61C364.693 285.847 376.753 301.412 391.658 301.412Z" fill="#18417E"/>
<path d="M391.657 301.413C391.657 281.96 405.116 266.219 421.748 266.219Z" fill="#6C63FF"/>
<path d="M374.462 268.354C374.462 286.627 382.153 301.413 391.657 301.413Z" fill="#6C63FF"/>
<path d="M391.657 301.412C391.657 276.556 407.213 256.443 426.437 256.443Z" fill="#18417E"/>
<path d="M385.985 301.658C385.985 301.658 389.809 301.54 390.961 300.719C392.113 299.898 396.843 298.917 397.128 300.234C397.414 301.552 402.875 306.785 398.558 306.819C394.241 306.854 388.527 306.147 387.377 305.446C386.227 304.745 385.985 301.658 385.985 301.658Z" fill="#A8A8A8"/>
<path opacity="0.2" d="M398.636 306.361C394.319 306.396 388.604 305.688 387.454 304.987C386.578 304.453 386.23 302.537 386.113 301.653L385.985 301.658C385.985 301.658 386.227 304.744 387.378 305.446C388.528 306.147 394.242 306.854 398.559 306.819C399.805 306.809 400.236 306.364 400.212 305.707C400.039 306.105 399.563 306.353 398.636 306.361Z" fill="black"/>
<path d="M451.835 312.964C451.835 312.964 457.578 312.089 459.165 310.642C460.753 309.194 467.704 306.854 468.374 308.787C469.045 310.72 478.229 317.612 471.727 318.452C465.226 319.292 456.485 319.266 454.623 318.419C452.762 317.572 451.835 312.964 451.835 312.964Z" fill="#A8A8A8"/>
<path opacity="0.2" d="M471.76 317.747C465.259 318.586 456.517 318.561 454.656 317.714C453.241 317.069 452.364 314.245 452.028 312.934L451.836 312.964C451.836 312.964 452.763 317.572 454.624 318.419C456.486 319.266 465.228 319.292 471.728 318.452C473.605 318.21 474.173 317.462 474.018 316.476C473.828 317.106 473.157 317.567 471.76 317.747Z" fill="black"/>
<path d="M310.518 312.55C310.518 312.55 315.364 311.812 316.704 310.59C318.043 309.368 323.91 307.393 324.475 309.024C325.041 310.656 332.792 316.473 327.306 317.181C321.82 317.889 314.442 317.868 312.871 317.153C311.301 316.439 310.518 312.55 310.518 312.55Z" fill="#A8A8A8"/>
<path opacity="0.2" d="M327.333 316.584C321.847 317.292 314.469 317.271 312.898 316.556C311.702 316.012 310.963 313.629 310.679 312.522L310.517 312.548C310.517 312.548 311.299 316.436 312.87 317.151C314.441 317.866 321.818 317.887 327.305 317.179C328.889 316.976 329.368 316.343 329.237 315.509C329.079 316.044 328.512 316.433 327.333 316.584Z" fill="black"/>
<path d="M61.8696 310.127C61.8696 310.127 65.6423 309.552 66.6857 308.601C67.729 307.65 72.2969 306.112 72.7362 307.382C73.1755 308.653 79.2108 313.181 74.9392 313.732C70.6676 314.284 64.9245 314.267 63.7016 313.71C62.4788 313.154 61.8696 310.127 61.8696 310.127Z" fill="#A8A8A8"/>
<path opacity="0.2" d="M74.9604 313.269C70.6893 313.82 64.9457 313.804 63.7228 313.247C62.7917 312.823 62.2169 310.968 61.9955 310.106L61.8696 310.127C61.8696 310.127 62.4762 313.154 63.7016 313.711C64.927 314.267 70.6681 314.284 74.9392 313.732C76.1721 313.573 76.5452 313.082 76.4436 312.434C76.3193 312.848 75.8779 313.151 74.9604 313.269Z" fill="black"/>
<path opacity="0.1" d="M193.966 304.172C193.966 319.458 172.672 314.73 146.599 314.73C120.527 314.73 99.5488 319.458 99.5488 304.172C99.5488 288.885 120.84 285.56 146.913 285.56C172.985 285.56 193.966 288.885 193.966 304.172Z" fill="black"/>
<path d="M193.966 300.41C193.966 315.696 172.672 310.968 146.599 310.968C120.527 310.968 99.5488 315.696 99.5488 300.41C99.5488 285.123 120.838 281.795 146.911 281.795C172.983 281.795 193.966 285.121 193.966 300.41Z" fill="#18417E"/>
<path fill-rule="evenodd" clip-rule="evenodd" d="M138.166 265.888C136.607 267.453 136.612 269.985 138.177 271.545L180.046 313.262C181.608 314.819 184.137 314.817 185.697 313.257L226.972 271.982L227.579 271.375C229.141 269.813 229.141 267.28 227.579 265.718L222.068 260.207L211.47 270.805L210.264 272.011C210.042 272.349 209.783 272.669 209.485 272.967L187.118 295.334C185.924 296.528 184.352 297.114 182.787 297.091C181.222 297.114 179.649 296.528 178.455 295.334L156.088 272.967C154.338 271.217 153.895 268.657 154.757 266.496C155.05 265.763 155.494 265.075 156.088 264.481L180.83 239.738L180.278 239.186L182.786 236.678L185.294 239.186L184.742 239.738L185.395 240.391L198.257 253.253L209.485 264.481C210.53 265.526 211.109 266.859 211.222 268.224L220.654 258.793L219.732 257.871L185.71 223.849C184.146 222.285 181.609 222.287 180.048 223.854L138.77 265.282L138.166 265.888ZM182.245 241.153L182.786 241.694L183.328 241.152L196.843 254.667L208.071 265.895C209.345 267.169 209.58 269.088 208.777 270.6C208.748 270.653 208.719 270.706 208.688 270.758L185.526 293.92C184.768 294.678 183.78 295.069 182.787 295.091C181.793 295.069 180.805 294.678 180.047 293.92L159.464 273.337L159.375 273.426L159.262 273.312L157.502 271.552C156.175 270.225 155.975 268.197 156.903 266.659C157.067 266.387 157.267 266.13 157.502 265.895L179.645 243.752L182.245 241.153Z" fill="url(#paint0_linear_90_195)"/>
</g>
<defs>
<linearGradient id="paint0_linear_90_195" x1="131.256" y1="268.541" x2="234.494" y2="268.541" gradientUnits="userSpaceOnUse">
<stop stop-color="#FF0000"/>
<stop offset="0.0001" stop-color="#FF0000"/>
<stop offset="0.5" stop-color="#D300FF"/>
<stop offset="0.927083" stop-color="#0029FF"/>
<stop offset="0.9998" stop-color="#1612BD"/>
<stop offset="0.9999" stop-color="#0500FF" stop-opacity="0"/>
</linearGradient>
<clipPath id="clip0_90_195">
<rect width="550" height="348" fill="white"/>
</clipPath>
</defs>
</svg>
